<svg xmlns="http://www.w3.org/2000/svg" viewBox="43.532 219.417 214.975 230.538"><path fill="#284F71" d="M141.758 219.421c13.694 0 27.11 2.139 38.947 6.327 18.315 6.471 32.13 19.566 40.815 36.81 8.766 17.424 3.645 45.459 15.318 59.184 4.068 4.779 36.63 37.503 13.356 37.503-19.863 0-3.411 11.655-16.425 19.998 5.121 7.065 3.393 7.02-1.98 14.184-6.831 9.135 8.577 26.712-8.739 27.954-1.151.086-2.814.112-4.817.112-1.551 0-3.305-.016-5.182-.031-1.837-.013-3.792-.027-5.794-.027-10.059 0-21.261.346-24.203 2.808-4.185 3.501-5.607 20.187-7.146 25.713-7.707-.148-15.402-.201-23.095-.201-10.605 0-21.202.102-31.796.201-10.554.104-21.106.208-31.669.208-7.731 0-15.469-.056-23.213-.208 11.817-28.224 14.112-52.272 1.206-80.712-16.578-36.531-39.033-75.744-9.216-114.255 18.643-24.081 51.891-35.569 83.633-35.568z"/><path fill="#AFC6E9" d="M139.995 231.131c36.371.1 70.101 18.011 68.977 55.167-.012.382.028.768.084 1.146 2.171 14.671-37.963 17.578-58.037 19.336-34.812 3.704-40.617 27.645-58.221 26.816-3.381.008-7.723-.797-13.367-2.927a6.756 6.756 0 0 1-.696-.309c-19.588-10.094-21.648-29.856-13.6-49.895 8.547-20.972 27.726-40.081 45.149-45.131 9.442-2.785 19.608-4.202 29.711-4.203z"/></svg>